<?xml version="1.0" encoding="UTF-8"?>
<!DOCTYPE svg PUBLIC "-//W3C//DTD SVG 1.1//EN" "http://www.w3.org/Graphics/SVG/1.1/DTD/svg11.dtd">
<svg xmlns="http://www.w3.org/2000/svg" xml:space="preserve" width="940px" height="280px" version="1.1" style="shape-rendering:geometricPrecision; text-rendering:geometricPrecision; image-rendering:optimizeQuality; fill-rule:evenodd; clip-rule:evenodd" viewBox="0 0 940 280"
 xmlns:xlink="http://www.w3.org/1999/xlink">
 <defs>
  <style type="text/css">
   <![CDATA[
    .fil0 {fill:#274C77}
    .fil1 {fill:white}
    .fil2 {fill:#A7C4D2;fill-rule:nonzero}
    .fil3 {fill:white;fill-rule:nonzero}
   ]]>
  </style>
 </defs>
 <g>
  <metadata id="CorelCorpID_0Corel-Layer"/>
  <polygon class="fil0" points="0,0 940,0 940,280 0,280 "/>
 </g>
 <g id="Arte">
  <g>
   <path class="fil1" d="M643.41 116.56l38.87 0c6.94,0 12.61,5.68 12.61,12.61l0 0c0,6.94 -5.67,12.62 -12.61,12.62l-38.87 0c-6.94,0 -12.61,-5.68 -12.61,-12.62l0 0c0,-6.93 5.67,-12.61 12.61,-12.61z"/>
   <path class="fil2" d="M640.89 123.06l4.89 0c0.97,0 1.69,0.04 2.16,0.12 0.48,0.08 0.91,0.25 1.28,0.5 0.38,0.26 0.69,0.6 0.94,1.02 0.25,0.43 0.38,0.9 0.38,1.43 0,0.57 -0.16,1.1 -0.46,1.57 -0.31,0.48 -0.73,0.84 -1.26,1.08 0.75,0.21 1.32,0.59 1.72,1.11 0.4,0.52 0.59,1.14 0.59,1.85 0,0.56 -0.12,1.1 -0.38,1.62 -0.26,0.53 -0.61,0.95 -1.06,1.27 -0.45,0.31 -1,0.5 -1.66,0.58 -0.41,0.04 -1.41,0.07 -2.98,0.08l-4.16 0 0 -12.23zm2.47 2.03l0 2.82 1.62 0c0.96,0 1.56,-0.01 1.79,-0.04 0.42,-0.05 0.75,-0.2 1,-0.44 0.24,-0.24 0.36,-0.56 0.36,-0.95 0,-0.38 -0.11,-0.68 -0.31,-0.92 -0.21,-0.24 -0.52,-0.38 -0.93,-0.43 -0.25,-0.02 -0.95,-0.04 -2.11,-0.04l-1.42 0zm0 4.85l0 3.28 2.29 0c0.89,0 1.46,-0.02 1.7,-0.07 0.36,-0.07 0.66,-0.23 0.89,-0.49 0.23,-0.26 0.35,-0.61 0.35,-1.04 0,-0.37 -0.09,-0.68 -0.27,-0.94 -0.17,-0.26 -0.43,-0.44 -0.77,-0.56 -0.34,-0.12 -1.07,-0.18 -2.19,-0.18l-2 0zm9.86 5.35l0 -12.23 9.06 0 0 2.07 -6.58 0 0 2.71 6.11 0 0 2.07 -6.11 0 0 3.31 6.82 0 0 2.07 -9.3 0zm14.15 0l0 -10.16 -3.63 0 0 -2.07 9.71 0 0 2.07 -3.61 0 0 10.16 -2.47 0zm17.43 0l-2.67 0 -1.05 -2.78 -4.91 0 -1.01 2.78 -2.62 0 4.75 -12.23 2.61 0 4.9 12.23zm-4.52 -4.85l-1.7 -4.53 -1.66 4.53 3.36 0z"/>
   <path class="fil2" d="M312.4 159.04c-1.91,1.23 -4.02,2.2 -6.31,2.9 -2.3,0.7 -4.72,1.05 -7.27,1.05 -3.45,0 -6.64,-0.6 -9.57,-1.82 -2.93,-1.21 -5.46,-2.86 -7.59,-4.94 -2.12,-2.08 -3.79,-4.53 -5.01,-7.33 -1.21,-2.81 -1.81,-5.81 -1.81,-9l0 -0.12c0,-3.19 0.6,-6.2 1.81,-9.03 1.22,-2.83 2.91,-5.29 5.08,-7.4 2.16,-2.1 4.71,-3.76 7.65,-4.97 2.93,-1.21 6.12,-1.82 9.57,-1.82 3.44,0 6.63,0.61 9.56,1.82 2.94,1.21 5.47,2.86 7.59,4.94 2.13,2.08 3.8,4.53 5.01,7.34 1.21,2.8 1.82,5.8 1.82,8.99l0 0.13c0,2.38 -0.34,4.65 -1.02,6.82 -0.68,2.17 -1.66,4.17 -2.94,6l4.59 3.89 -6.25 6.95 -4.91 -4.4zm-13.48 -7.02c1.59,0 3.1,-0.27 4.55,-0.83l-6.18 -5.29 6.25 -7.02 6.06 5.49c0.46,-1.32 0.7,-2.77 0.7,-4.34l0 -0.13c0,-1.61 -0.28,-3.15 -0.83,-4.62 -0.55,-1.47 -1.34,-2.76 -2.36,-3.89 -1.02,-1.13 -2.24,-2.02 -3.67,-2.68 -1.42,-0.66 -2.99,-0.99 -4.69,-0.99 -1.7,0 -3.24,0.33 -4.62,0.99 -1.38,0.66 -2.57,1.54 -3.57,2.65 -1,1.1 -1.77,2.38 -2.3,3.82 -0.53,1.45 -0.79,2.98 -0.79,4.6l0 0.12c0,1.62 0.27,3.16 0.82,4.63 0.57,1.47 1.34,2.75 2.34,3.86 1.01,1.1 2.21,1.98 3.63,2.64 1.4,0.66 2.96,0.99 4.66,0.99z"/>
   <path class="fil3" d="M245.11 117.45l17.22 0c4,0 7.56,0.55 10.68,1.63 3.13,1.08 5.76,2.6 7.91,4.56 2.15,1.96 3.78,4.28 4.91,6.98 1.13,2.7 1.69,5.67 1.69,8.9l0 0.13c0,3.23 -0.57,6.22 -1.72,8.96 -1.15,2.74 -2.81,5.11 -4.97,7.11 -2.17,2 -4.84,3.56 -8.01,4.69 -3.17,1.12 -6.75,1.69 -10.74,1.69l-16.97 0 0 -44.65zm17.43 33.68c3.71,0 6.7,-0.98 8.96,-2.93 2.27,-1.96 3.39,-4.75 3.39,-8.36l0 -0.13c0,-3.57 -1.12,-6.34 -3.39,-8.32 -2.26,-1.98 -5.25,-2.97 -8.96,-2.97l-5.06 0 0 22.71 5.06 0z"/>
   <path class="fil3" d="M366.2 157.93c2.85,0 5.44,-0.45 7.77,-1.36 2.33,-0.9 4.31,-2.15 5.92,-3.75 1.62,-1.6 2.87,-3.49 3.76,-5.67 0.88,-2.18 1.33,-4.52 1.33,-7.02l0 -0.13c0,-2.5 -0.45,-4.85 -1.33,-7.03 -0.89,-2.18 -2.14,-4.08 -3.76,-5.69 -1.61,-1.62 -3.59,-2.9 -5.92,-3.82 -2.33,-0.93 -4.92,-1.4 -7.77,-1.4l-10.62 0 0 35.87 10.62 0zm-15.73 -40.59l15.73 0c3.54,0 6.79,0.57 9.75,1.71 2.95,1.15 5.5,2.73 7.63,4.76 2.14,2.03 3.79,4.42 4.96,7.16 1.16,2.74 1.74,5.71 1.74,8.9l0 0.13c0,3.19 -0.58,6.17 -1.74,8.93 -1.17,2.77 -2.82,5.16 -4.96,7.19 -2.13,2.03 -4.68,3.63 -7.63,4.79 -2.96,1.17 -6.21,1.75 -9.75,1.75l-15.73 0 0 -45.32zm51.08 0l5.12 0 0 45.32 -5.12 0 0 -45.32zm39.43 46.1c-3.58,0 -6.79,-0.61 -9.61,-1.82 -2.83,-1.2 -5.25,-2.87 -7.26,-4.98 -2,-2.12 -3.54,-4.59 -4.59,-7.41 -1.06,-2.83 -1.59,-5.86 -1.59,-9.1l0 -0.13c0,-3.11 0.55,-6.08 1.65,-8.9 1.1,-2.83 2.65,-5.32 4.63,-7.48 1.99,-2.16 4.37,-3.88 7.16,-5.15 2.78,-1.27 5.88,-1.91 9.29,-1.91 1.9,0 3.63,0.13 5.21,0.39 1.57,0.26 3.04,0.65 4.4,1.17 1.36,0.51 2.63,1.15 3.82,1.9 1.19,0.76 2.34,1.61 3.46,2.56l-3.3 3.89c-0.86,-0.78 -1.77,-1.48 -2.72,-2.11 -0.95,-0.62 -1.97,-1.16 -3.07,-1.62 -1.1,-0.45 -2.31,-0.8 -3.63,-1.06 -1.31,-0.26 -2.77,-0.39 -4.37,-0.39 -2.5,0 -4.81,0.49 -6.93,1.49 -2.11,0.99 -3.92,2.33 -5.43,4.01 -1.51,1.68 -2.7,3.66 -3.57,5.92 -0.86,2.27 -1.29,4.66 -1.29,7.16l0 0.13c0,2.72 0.42,5.22 1.26,7.51 0.84,2.29 2.04,4.27 3.6,5.96 1.55,1.68 3.43,3 5.63,3.95 2.2,0.94 4.68,1.42 7.44,1.42 2.59,0 5.03,-0.44 7.32,-1.33 2.29,-0.88 4.21,-1.95 5.76,-3.2l0 -11.27 -13.79 0 0 -4.59 18.71 0 0 18.06c-2.11,1.9 -4.71,3.53 -7.8,4.89 -3.08,1.36 -6.55,2.04 -10.39,2.04zm30.17 -46.1l5.12 0 0 45.32 -5.12 0 0 -45.32zm30.37 4.72l-15.22 0 0 -4.72 35.54 0 0 4.72 -15.21 0 0 40.6 -5.11 0 0 -40.6zm59.37 24.02l-10.3 -23.11 -10.36 23.11 20.66 0zm-12.63 -29.07l4.79 0 20.66 45.65 -5.51 0 -5.31 -11.98 -24.66 0 -5.38 11.98 -5.24 0 20.65 -45.65zm34.38 0.33l5.11 0 0 40.59 25.51 0 0 4.73 -30.62 0 0 -45.32z"/>
  </g>
 </g>
</svg>