<svg xmlns="http://www.w3.org/2000/svg" width="200" height="200" shape-rendering="geometricPrecision" image-rendering="optimizeQuality" fill-rule="evenodd" xmlns:v="https://vecta.io/nano"><path d="M18 0h164c9.9 0 18 8.1 18 18v164c0 9.9-8.1 18-18 18H18c-9.9 0-18-8.1-18-18V18C0 8.1 8.1 0 18 0z" fill="#274c77"/><path d="M200 157.91V182c0 9.9-8.1 18-18 18H18c-9.9 0-18-8.1-18-18v-24.09h200z" fill="#3c4b58"/><path d="M64.59 169.09h7.88c1.57 0 2.73.07 3.5.19.77.14 1.45.41 2.06.82s1.11.96 1.51 1.64c.41.69.61 1.46.61 2.31 0 .91-.25 1.77-.74 2.53a4.6 4.6 0 0 1-2.02 1.73c1.2.36 2.11.95 2.76 1.8.64.84.97 1.83.97 2.98a5.84 5.84 0 0 1-.63 2.62 5.35 5.35 0 0 1-1.71 2.04c-.72.5-1.61.82-2.67.94-.67.06-2.27.11-4.81.13h-6.71v-19.73zm3.99 3.28v4.55h2.61l2.89-.07c.68-.08 1.21-.32 1.6-.71.39-.38.59-.89.59-1.53 0-.61-.17-1.1-.51-1.48-.33-.38-.84-.61-1.49-.69-.4-.05-1.53-.07-3.4-.07h-2.29zm0 7.83v5.28h3.69l2.73-.12c.6-.11 1.08-.37 1.45-.78.37-.43.56-.98.56-1.68 0-.6-.14-1.1-.43-1.52-.28-.41-.7-.71-1.25-.9-.54-.19-1.72-.28-3.53-.28h-3.22zm15.9 8.62v-19.73h14.6v3.34h-10.6v4.38h9.86v3.33h-9.86v5.34h10.99v3.34H84.48zm22.81 0v-16.39h-5.84v-3.34h15.65v3.34h-5.81v16.39h-4zm28.12 0h-4.3l-1.7-4.49h-7.91l-1.64 4.49h-4.23l7.66-19.73h4.22l7.9 19.73zm-7.3-7.83l-2.74-7.3-2.66 7.3h5.4zm-25.78-58.49c-6.49 0-12.66-1-18.49-3.02-5.84-2.02-11-5.04-15.49-9.06l11.19-13.4c7.25 5.8 15.09 8.7 23.52 8.7 2.69 0 4.74-.43 6.16-1.3 1.41-.86 2.12-2.08 2.12-3.67v-.19c0-.76-.17-1.44-.52-2.02-.34-.59-.98-1.16-1.91-1.71-.93-.56-2.18-1.09-3.73-1.61-1.56-.52-3.57-1.05-6.06-1.6-3.87-.9-7.46-1.89-10.77-2.94-3.32-1.07-6.2-2.45-8.65-4.14-2.46-1.69-4.39-3.8-5.8-6.3-1.42-2.53-2.13-5.65-2.13-9.36v-.21c0-3.38.64-6.49 1.92-9.31 1.28-2.83 3.14-5.28 5.59-7.35 2.45-2.06 5.41-3.66 8.86-4.8s7.35-1.71 11.7-1.71c6.22 0 11.76.81 16.63 2.45a41.62 41.62 0 0 1 13.21 7.24l-10.05 14.24c-3.31-2.35-6.72-4.13-10.2-5.33-3.49-1.21-6.86-1.82-10.1-1.82-2.42 0-4.23.45-5.44 1.35s-1.82 2-1.82 3.31v.21c0 .81.19 1.54.57 2.16s1.04 1.19 1.97 1.71 2.21 1.03 3.84 1.55c1.62.52 3.67 1.06 6.16 1.61 4.14.9 7.89 1.95 11.24 3.14 3.35 1.21 6.2 2.68 8.55 4.4 2.34 1.73 4.14 3.82 5.38 6.25 1.25 2.45 1.87 5.37 1.87 8.74v.21c0 3.73-.71 7.04-2.13 9.92-1.41 2.9-3.4 5.37-5.95 7.41-2.56 2.02-5.63 3.57-9.22 4.65-3.59 1.07-7.6 1.6-12.02 1.6z" fill="#fff" fill-rule="nonzero"/></svg>