<?xml version="1.0" encoding="UTF-8"?>
<!DOCTYPE svg PUBLIC "-//W3C//DTD SVG 1.1//EN" "http://www.w3.org/Graphics/SVG/1.1/DTD/svg11.dtd">
<svg xmlns="http://www.w3.org/2000/svg" xml:space="preserve" width="200px" height="200px" version="1.1" style="shape-rendering:geometricPrecision; text-rendering:geometricPrecision; image-rendering:optimizeQuality; fill-rule:evenodd; clip-rule:evenodd"
viewBox="0 0 200 200"
 xmlns:xlink="http://www.w3.org/1999/xlink">
 <defs>
  <style type="text/css">
   <![CDATA[
    .fil1 {fill:#3C4B58}
    .fil0 {fill:#274C77}
    .fil2 {fill:white;fill-rule:nonzero}
   ]]>
  </style>
 </defs>
 <g id="Arte">
  <path class="fil0" d="M18 0l164 0c9.9,0 18,8.1 18,18l0 164c0,9.9 -8.1,18 -18,18l-164 0c-9.9,0 -18,-8.1 -18,-18l0 -164c0,-9.9 8.1,-18 18,-18z"/>
  <path class="fil1" d="M200 157.91l0 24.09c0,9.9 -8.1,18 -18,18l-164 0c-9.9,0 -18,-8.1 -18,-18l0 -24.09 200 0z"/>
  <path class="fil2" d="M64.59 169.09l7.88 0c1.57,0 2.73,0.07 3.5,0.19 0.77,0.14 1.45,0.41 2.06,0.82 0.61,0.41 1.11,0.96 1.51,1.64 0.41,0.69 0.61,1.46 0.61,2.31 0,0.91 -0.25,1.77 -0.74,2.53 -0.5,0.77 -1.17,1.35 -2.02,1.73 1.2,0.36 2.11,0.95 2.76,1.8 0.64,0.84 0.97,1.83 0.97,2.98 0,0.9 -0.21,1.77 -0.63,2.62 -0.42,0.85 -0.99,1.53 -1.71,2.04 -0.72,0.5 -1.61,0.82 -2.67,0.94 -0.67,0.06 -2.27,0.11 -4.81,0.13l-6.71 0 0 -19.73zm3.99 3.28l0 4.55 2.61 0c1.55,0 2.51,-0.03 2.89,-0.07 0.68,-0.08 1.21,-0.32 1.6,-0.71 0.39,-0.38 0.59,-0.89 0.59,-1.53 0,-0.61 -0.17,-1.1 -0.51,-1.48 -0.33,-0.38 -0.84,-0.61 -1.49,-0.69 -0.4,-0.05 -1.53,-0.07 -3.4,-0.07l-2.29 0zm0 7.83l0 5.28 3.69 0c1.43,0 2.35,-0.04 2.73,-0.12 0.6,-0.11 1.08,-0.37 1.45,-0.78 0.37,-0.43 0.56,-0.98 0.56,-1.68 0,-0.6 -0.14,-1.1 -0.43,-1.52 -0.28,-0.41 -0.7,-0.71 -1.25,-0.9 -0.54,-0.19 -1.72,-0.28 -3.53,-0.28l-3.22 0zm15.9 8.62l0 -19.73 14.6 0 0 3.34 -10.6 0 0 4.38 9.86 0 0 3.33 -9.86 0 0 5.34 10.99 0 0 3.34 -14.99 0zm22.81 0l0 -16.39 -5.84 0 0 -3.34 15.65 0 0 3.34 -5.81 0 0 16.39 -4 0zm28.12 0l-4.3 0 -1.7 -4.49 -7.91 0 -1.64 4.49 -4.23 0 7.66 -19.73 4.22 0 7.9 19.73zm-7.3 -7.83l-2.74 -7.3 -2.66 7.3 5.4 0z"/>
  <path class="fil2" d="M102.33 122.5c-6.49,0 -12.66,-1 -18.49,-3.02 -5.84,-2.02 -11,-5.04 -15.49,-9.06l11.19 -13.4c7.25,5.8 15.09,8.7 23.52,8.7 2.69,0 4.74,-0.43 6.16,-1.3 1.41,-0.86 2.12,-2.08 2.12,-3.67l0 -0.19c0,-0.76 -0.17,-1.44 -0.52,-2.02 -0.34,-0.59 -0.98,-1.16 -1.91,-1.71 -0.93,-0.56 -2.18,-1.09 -3.73,-1.61 -1.56,-0.52 -3.57,-1.05 -6.06,-1.6 -3.87,-0.9 -7.46,-1.89 -10.77,-2.94 -3.32,-1.07 -6.2,-2.45 -8.65,-4.14 -2.46,-1.69 -4.39,-3.8 -5.8,-6.3 -1.42,-2.53 -2.13,-5.65 -2.13,-9.36l0 -0.21c0,-3.38 0.64,-6.49 1.92,-9.31 1.28,-2.83 3.14,-5.28 5.59,-7.35 2.45,-2.06 5.41,-3.66 8.86,-4.8 3.45,-1.14 7.35,-1.71 11.7,-1.71 6.22,0 11.76,0.81 16.63,2.45 4.87,1.62 9.27,4.04 13.21,7.24l-10.05 14.24c-3.31,-2.35 -6.72,-4.13 -10.2,-5.33 -3.49,-1.21 -6.86,-1.82 -10.1,-1.82 -2.42,0 -4.23,0.45 -5.44,1.35 -1.21,0.9 -1.82,2 -1.82,3.31l0 0.21c0,0.81 0.19,1.54 0.57,2.16 0.38,0.62 1.04,1.19 1.97,1.71 0.93,0.52 2.21,1.03 3.84,1.55 1.62,0.52 3.67,1.06 6.16,1.61 4.14,0.9 7.89,1.95 11.24,3.14 3.35,1.21 6.2,2.68 8.55,4.4 2.34,1.73 4.14,3.82 5.38,6.25 1.25,2.45 1.87,5.37 1.87,8.74l0 0.21c0,3.73 -0.71,7.04 -2.13,9.92 -1.41,2.9 -3.4,5.37 -5.95,7.41 -2.56,2.02 -5.63,3.57 -9.22,4.65 -3.59,1.07 -7.6,1.6 -12.02,1.6z"/>
 </g>
</svg>