<svg xmlns="http://www.w3.org/2000/svg" width="430" height="70" shape-rendering="geometricPrecision" image-rendering="optimizeQuality" fill-rule="nonzero" xmlns:v="https://vecta.io/nano"><path d="M27.35 62.22c1.1 0 2.11-.17 3.02-.52.9-.36 1.67-.84 2.3-1.46s1.11-1.36 1.46-2.21c.34-.84.51-1.75.51-2.73v-.05c0-.97-.17-1.88-.51-2.73-.35-.85-.83-1.58-1.46-2.21s-1.4-1.13-2.3-1.49c-.91-.36-1.92-.54-3.02-.54h-4.13v13.94h4.13zm-6.12-15.78h6.12c1.37 0 2.63.23 3.78.67 1.15.45 2.14 1.06 2.97 1.85s1.48 1.72 1.93 2.78c.45 1.07.68 2.22.68 3.46v.05a8.96 8.96 0 0 1-.68 3.48 8.22 8.22 0 0 1-1.93 2.79 9.02 9.02 0 0 1-2.97 1.86c-1.15.46-2.41.68-3.78.68h-6.12V46.44zm19.68 0h12.74v1.79H42.9v6.07h9.61v1.78H42.9v6.19h10.87v1.79H40.91V46.44zm23.22 9.62c.72 0 1.38-.09 1.98-.28.6-.18 1.11-.45 1.54-.79.43-.35.76-.76.98-1.23.23-.47.34-1 .34-1.59v-.05c0-1.26-.43-2.22-1.3-2.87-.86-.65-2.01-.97-3.44-.97h-4.47v7.78h4.37zm-6.36-9.62h6.6c.99 0 1.89.13 2.7.39.82.26 1.51.63 2.09 1.11a4.8 4.8 0 0 1 1.34 1.75c.31.69.46 1.47.46 2.34v.05c0 .96-.18 1.79-.55 2.51-.37.71-.87 1.31-1.5 1.8-.63.48-1.36.85-2.2 1.09s-1.73.37-2.67.37h-4.28v6.21h-1.99V46.44zm28.24 11.18l-4-8.99-4.03 8.99h8.03zm-4.9-11.3h1.86L91 64.06h-2.14l-2.07-4.65H77.2l-2.09 4.65h-2.03l8.03-17.74zm20.77 9.11c.66 0 1.26-.08 1.82-.25.55-.17 1.03-.41 1.44-.72.4-.31.72-.69.94-1.13.23-.45.34-.95.34-1.52v-.06c0-1.09-.39-1.94-1.18-2.55s-1.9-.92-3.33-.92h-5.45v7.15h5.42zm-7.41-8.99h7.58c1.09 0 2.05.16 2.9.47s1.55.74 2.1 1.3a4.3 4.3 0 0 1 1.01 1.53c.23.59.35 1.23.35 1.94v.05c0 .74-.12 1.4-.35 1.97-.23.58-.57 1.09-.99 1.52a5.61 5.61 0 0 1-1.53 1.05 6.87 6.87 0 0 1-1.91.59l5.41 7.2h-2.44l-5.11-6.84h-.05-4.98v6.84h-1.99V46.44zm22.85 1.84h-5.91v-1.84h13.81v1.84h-5.91v15.78h-1.99V48.28zm23.08 9.34l-4-8.99-4.03 8.99h8.03zm-4.91-11.3h1.86l8.03 17.74h-2.14l-2.06-4.65h-9.59l-2.09 4.65h-2.04l8.03-17.74zm13.37.12h2.01l6.42 9.62 6.42-9.62h2.01v17.62h-1.99V49.79l-6.42 9.44h-.1l-6.42-9.41v14.24h-1.93V46.44zm21.84 0h12.74v1.79h-10.75v6.07h9.61v1.78h-9.61v6.19h10.87v1.79H170.7V46.44zm16.87 0h1.86l11.1 14.12V46.44h1.93v17.62h-1.58L189.5 49.62v14.44h-1.93V46.44zm24.53 1.84h-5.91v-1.84h13.82v1.84h-5.92v15.78h-1.99V48.28zm19.89 14.25c1 0 1.93-.19 2.78-.57.84-.38 1.57-.89 2.17-1.55.61-.65 1.08-1.42 1.43-2.29.34-.87.51-1.81.51-2.82v-.05a7.81 7.81 0 0 0-.51-2.83c-.35-.88-.83-1.65-1.45-2.3-.62-.66-1.36-1.18-2.2-1.56-.85-.39-1.78-.58-2.78-.58-1.01 0-1.94.19-2.79.57-.84.37-1.57.89-2.17 1.54-.61.66-1.08 1.42-1.42 2.29-.35.88-.52 1.82-.52 2.82v.05c0 1.01.17 1.95.52 2.83a6.94 6.94 0 0 0 1.44 2.31c.62.65 1.36 1.17 2.21 1.56.84.38 1.77.58 2.78.58zm-.05 1.83c-1.35 0-2.57-.24-3.67-.73a8.62 8.62 0 0 1-2.83-1.97c-.79-.83-1.39-1.8-1.82-2.9-.43-1.09-.64-2.25-.64-3.46v-.05c0-1.21.21-2.36.65-3.47s1.05-2.08 1.84-2.91 1.73-1.49 2.84-1.98c1.11-.5 2.33-.75 3.68-.75 1.34 0 2.56.25 3.66.73 1.1.49 2.04 1.15 2.83 1.98s1.4 1.79 1.82 2.89a9.41 9.41 0 0 1 .65 3.46c.01.02.01.04 0 .05a9.36 9.36 0 0 1-.66 3.48c-.43 1.1-1.05 2.07-1.84 2.9-.78.83-1.73 1.5-2.84 1.99-1.11.5-2.33.74-3.67.74zm26.88-2.14c1.1 0 2.11-.17 3.02-.52.9-.36 1.67-.84 2.3-1.46s1.11-1.36 1.46-2.21c.34-.84.51-1.75.51-2.73v-.05c0-.97-.17-1.88-.51-2.73-.35-.85-.83-1.58-1.46-2.21s-1.4-1.13-2.3-1.49c-.91-.36-1.92-.54-3.02-.54h-4.13v13.94h4.13zm-6.12-15.78h6.12c1.37 0 2.64.23 3.78.67 1.15.45 2.14 1.06 2.97 1.85s1.48 1.72 1.93 2.78c.45 1.07.68 2.22.68 3.46v.05a8.96 8.96 0 0 1-.68 3.48 8.22 8.22 0 0 1-1.93 2.79 9.02 9.02 0 0 1-2.97 1.86c-1.14.46-2.41.68-3.78.68h-6.12V46.44zm19.68 0h12.74v1.79h-10.75v6.07h9.61v1.78h-9.61v6.19h10.87v1.79h-12.86V46.44zm32.65 16.09c.78 0 1.52-.12 2.21-.36.69-.23 1.3-.56 1.84-.98l-3.27-2.79 1.33-1.49 3.25 2.95c.48-.62.86-1.32 1.13-2.09s.4-1.59.4-2.47v-.05a7.81 7.81 0 0 0-.51-2.83c-.35-.88-.83-1.65-1.45-2.3-.62-.66-1.36-1.18-2.2-1.56-.85-.39-1.78-.58-2.78-.58-1.01 0-1.94.19-2.79.57-.84.37-1.57.89-2.17 1.54-.61.66-1.08 1.42-1.42 2.29-.35.88-.52 1.82-.52 2.82v.05c0 1.01.17 1.95.52 2.83a6.94 6.94 0 0 0 1.44 2.31c.62.65 1.36 1.17 2.2 1.56.85.38 1.78.58 2.79.58zm5.51-.05a9.63 9.63 0 0 1-2.52 1.38c-.92.34-1.94.5-3.04.5-1.35 0-2.57-.24-3.67-.73a8.62 8.62 0 0 1-2.83-1.97c-.79-.83-1.39-1.8-1.82-2.9-.43-1.09-.64-2.25-.64-3.46v-.05c0-1.21.21-2.36.65-3.47s1.05-2.08 1.84-2.91 1.73-1.49 2.84-1.98c1.11-.5 2.33-.75 3.68-.75 1.34 0 2.56.25 3.66.73 1.1.49 2.04 1.15 2.83 1.98s1.4 1.79 1.82 2.89a9.41 9.41 0 0 1 .65 3.46c.01.02.01.04 0 .05 0 1.11-.18 2.17-.55 3.19a8.64 8.64 0 0 1-1.57 2.73l2.34 1.94-1.36 1.48-2.31-2.11zm14.7 1.86c-1.09 0-2.09-.16-2.99-.49-.89-.33-1.67-.82-2.31-1.46-.65-.65-1.15-1.45-1.5-2.41-.35-.95-.53-2.05-.53-3.29V46.44h1.99v10.12c0 1.91.47 3.38 1.42 4.41.95 1.02 2.27 1.53 3.97 1.53 1.62 0 2.92-.48 3.87-1.46.96-.97 1.44-2.42 1.44-4.35V46.44h1.98v10.1c0 1.29-.17 2.42-.52 3.39-.36.98-.85 1.79-1.5 2.45-.65.65-1.42 1.14-2.32 1.47-.89.33-1.9.49-3 .49zm14.82-23.11l2.01.94-2.84 2.69h-1.56l2.39-3.63zm-2.59 5.21h1.99v17.62h-1.99V46.44zm7.15 0h2.01l6.42 9.62 6.42-9.62h2.01v17.62h-1.99V49.79l-6.42 9.44h-.1l-6.42-9.41v14.24h-1.93V46.44zm22.02 0h1.99v17.62h-1.99V46.44zm15.2 17.92c-1.28 0-2.45-.23-3.52-.7-1.08-.47-2.01-1.11-2.8-1.93-.79-.81-1.4-1.77-1.85-2.88-.44-1.11-.66-2.29-.66-3.55v-.05c0-1.24.22-2.41.66-3.52.45-1.11 1.06-2.08 1.85-2.91s1.73-1.48 2.82-1.96 2.28-.72 3.57-.72c.81 0 1.54.07 2.18.2.65.14 1.25.33 1.8.57a8 8 0 0 1 1.54.88c.47.34.92.73 1.36 1.15l-1.36 1.46a11.09 11.09 0 0 0-2.43-1.74c-.87-.45-1.9-.68-3.11-.68-.97 0-1.87.18-2.71.55-.83.37-1.55.88-2.16 1.54-.61.65-1.09 1.42-1.43 2.3-.35.88-.52 1.83-.52 2.83v.05c0 1.03.17 1.98.52 2.86.34.88.82 1.65 1.43 2.3a6.69 6.69 0 0 0 2.16 1.55c.84.38 1.74.57 2.71.57 1.21 0 2.25-.23 3.12-.67s1.73-1.07 2.57-1.88l1.31 1.29c-.46.47-.93.89-1.43 1.27-.49.38-1.02.7-1.59.97s-1.19.48-1.84.63c-.66.15-1.39.22-2.19.22zm21.95-6.74l-4.01-8.99-4.02 8.99h8.03zm-4.91-11.3h1.86l8.03 17.74h-2.14l-2.06-4.65h-9.59l-2.09 4.65h-2.04l8.03-17.74z" fill="#a7c4d2"/><path d="M140.05 29.39c-2.03 0-3.95-.31-5.77-.95a14.01 14.01 0 0 1-4.83-2.85l3.49-4.22c2.26 1.83 4.7 2.74 7.33 2.74.84 0 1.48-.14 1.92-.41.45-.27.67-.66.67-1.16v-.06a1.28 1.28 0 0 0-.16-.63c-.11-.19-.31-.37-.6-.54-.29-.18-.68-.34-1.17-.51-.48-.16-1.11-.33-1.89-.5l-3.35-.93c-1.04-.33-1.94-.77-2.7-1.3-.77-.54-1.37-1.2-1.81-1.99s-.66-1.77-.66-2.94v-.07c0-1.06.2-2.04.6-2.93.39-.89.97-1.66 1.74-2.31.76-.65 1.68-1.16 2.76-1.52 1.08-.35 2.29-.53 3.65-.53 1.94 0 3.67.25 5.18.77 1.52.51 2.9 1.27 4.12 2.28l-3.13 4.48c-1.03-.74-2.09-1.3-3.18-1.68s-2.14-.57-3.15-.57c-.75 0-1.32.14-1.7.42-.37.29-.56.63-.56 1.05v.06c0 .26.06.49.18.68.12.2.32.38.61.54s.69.33 1.2.49l1.92.51c1.29.28 2.46.61 3.5.99 1.05.38 1.93.84 2.67 1.38.73.55 1.29 1.2 1.68 1.97.38.77.58 1.69.58 2.75v.07c0 1.17-.22 2.22-.66 3.12a6.94 6.94 0 0 1-1.86 2.34c-.8.63-1.76 1.12-2.88 1.46s-2.37.5-3.74.5zm12.17-23.22h18.16v5.38h-11.99v3.46h10.86V20h-10.86v3.62h12.15V29h-18.32V6.17zm31.95 10.96c1.08 0 1.9-.25 2.49-.74.58-.49.87-1.14.87-1.97v-.06c0-.92-.3-1.6-.91-2.04-.6-.45-1.43-.67-2.48-.67h-4.11v5.48h4.14zm-10.4-10.96h10.69c1.74 0 3.22.22 4.42.65 1.21.43 2.19 1.04 2.94 1.83 1.34 1.3 2.01 3.07 2.01 5.31v.07c0 1.76-.42 3.22-1.26 4.37s-1.97 2.03-3.39 2.64l5.39 7.96h-7.24l-4.55-6.91h-.06-2.69V29h-6.26V6.17zm21.41 0h7.01l5.14 14.45 5.13-14.45h6.88l-9.17 23h-5.81l-9.18-23zm26.49 0h6.3V29h-6.3V6.17zm15.86 26.39l2.52-3.46c-1.27-.33-2.44-.83-3.51-1.52-1.06-.68-1.98-1.52-2.76-2.53a11.75 11.75 0 0 1-1.81-3.37c-.43-1.25-.64-2.6-.64-4.03v-.07c0-1.65.3-3.2.9-4.64.6-1.45 1.43-2.71 2.49-3.79 1.05-1.07 2.31-1.92 3.76-2.53 1.46-.6 3.04-.91 4.77-.91 1.16 0 2.22.11 3.16.34.95.23 1.82.56 2.6.98.79.43 1.5.93 2.13 1.52.64.59 1.21 1.23 1.7 1.92l-4.72 3.69c-.64-.83-1.35-1.48-2.13-1.96-.77-.48-1.71-.72-2.81-.72a4.94 4.94 0 0 0-2.18.48 5.08 5.08 0 0 0-1.69 1.29c-.48.54-.85 1.18-1.12 1.92s-.4 1.52-.4 2.35v.06a7.03 7.03 0 0 0 .4 2.4c.27.75.64 1.4 1.12 1.94a5.08 5.08 0 0 0 1.69 1.29c.66.32 1.39.47 2.18.47.58 0 1.12-.06 1.6-.19.49-.13.93-.32 1.33-.57a8.4 8.4 0 0 0 1.13-.88c.35-.34.7-.72 1.05-1.13L253 24.3a17.28 17.28 0 0 1-1.6 1.9 9.86 9.86 0 0 1-1.92 1.53 11.72 11.72 0 0 1-2.37 1.09c-.88.3-1.84.49-2.89.57l-1.81 5.26-4.88-2.09zm29.57-8.81c.86 0 1.65-.16 2.36-.49a5.54 5.54 0 0 0 1.82-1.32c.49-.55.89-1.2 1.17-1.94a6.57 6.57 0 0 0 .42-2.35v-.07c0-.82-.14-1.61-.42-2.34a6.12 6.12 0 0 0-1.2-1.96 5.84 5.84 0 0 0-1.85-1.36c-.71-.33-1.5-.5-2.36-.5-.87 0-1.65.16-2.35.49-.71.32-1.31.76-1.82 1.32a5.83 5.83 0 0 0-1.16 1.94 6.79 6.79 0 0 0-.41 2.35v.06a6.57 6.57 0 0 0 .42 2.35c.28.74.68 1.39 1.19 1.96.5.57 1.11 1.02 1.83 1.35.71.34 1.5.51 2.36.51zm-.05 5.71c-1.74 0-3.36-.31-4.84-.93-1.49-.62-2.77-1.46-3.85-2.53-1.07-1.06-1.92-2.32-2.53-3.75-.62-1.44-.92-2.97-.92-4.6v-.07c0-1.63.3-3.17.92-4.61.61-1.45 1.47-2.71 2.57-3.79 1.09-1.07 2.39-1.92 3.87-2.54 1.49-.62 3.1-.93 4.85-.93 1.74 0 3.36.31 4.84.93 1.49.62 2.77 1.46 3.85 2.53 1.07 1.06 1.92 2.31 2.53 3.75.62 1.44.92 2.97.92 4.6v.06c0 1.64-.3 3.17-.92 4.62a11.37 11.37 0 0 1-2.57 3.78c-1.09 1.08-2.39 1.93-3.87 2.55-1.49.62-3.1.93-4.85.93zm24.36-.07c-2.03 0-3.95-.31-5.77-.95a14.01 14.01 0 0 1-4.83-2.85l3.49-4.22c2.26 1.83 4.71 2.74 7.33 2.74.84 0 1.48-.14 1.93-.41.44-.27.66-.66.66-1.16v-.06a1.28 1.28 0 0 0-.16-.63c-.11-.19-.31-.37-.6-.54-.29-.18-.68-.34-1.16-.51-.49-.16-1.12-.33-1.89-.5l-3.36-.93c-1.04-.33-1.94-.77-2.7-1.3-.76-.54-1.37-1.2-1.81-1.99s-.66-1.77-.66-2.94v-.07c0-1.06.2-2.04.6-2.93.39-.89.98-1.66 1.74-2.31.77-.65 1.69-1.16 2.76-1.52 1.08-.35 2.29-.53 3.65-.53 1.94 0 3.67.25 5.19.77a12.85 12.85 0 0 1 4.11 2.28l-3.13 4.48c-1.03-.74-2.09-1.3-3.18-1.68s-2.14-.57-3.15-.57c-.75 0-1.32.14-1.7.42-.37.29-.56.63-.56 1.05v.06c0 .26.06.49.18.68.12.2.32.38.61.54s.69.33 1.2.49l1.92.51c1.29.28 2.46.61 3.5.99 1.05.38 1.94.84 2.67 1.38.73.55 1.29 1.2 1.68 1.97.38.77.58 1.69.58 2.75v.07c0 1.17-.22 2.22-.66 3.12a6.82 6.82 0 0 1-1.86 2.34c-.8.63-1.76 1.12-2.88 1.46s-2.36.5-3.74.5z" fill="#fff"/></svg>