<svg xmlns="http://www.w3.org/2000/svg" width="730" height="60" shape-rendering="geometricPrecision" image-rendering="optimizeQuality" fill-rule="nonzero" xmlns:v="https://vecta.io/nano"><path d="M336.4 37.47c1.11 0 2.12-.17 3.02-.53.91-.35 1.68-.83 2.31-1.45a6.63 6.63 0 0 0 1.45-2.21 7.06 7.06 0 0 0 .52-2.73v-.05c0-.97-.17-1.88-.52-2.73a6.63 6.63 0 0 0-1.45-2.21c-.63-.63-1.4-1.13-2.31-1.49-.9-.36-1.91-.54-3.02-.54h-4.13v13.94h4.13zm-6.11-15.78h6.11c1.38 0 2.64.23 3.79.67s2.14 1.06 2.97 1.85a8.25 8.25 0 0 1 1.92 2.78c.46 1.07.68 2.22.68 3.46v.05c0 1.24-.22 2.4-.68 3.47-.45 1.08-1.09 2.01-1.92 2.8a9.02 9.02 0 0 1-2.97 1.86c-1.15.45-2.41.68-3.79.68h-6.11V21.69zm19.68 0h12.73v1.79h-10.74v6.07h9.61v1.78h-9.61v6.19h10.87v1.79h-12.86V21.69zm23.22 9.62c.72 0 1.38-.09 1.97-.28.6-.18 1.12-.45 1.54-.8.43-.34.76-.75.99-1.22s.34-1 .34-1.59v-.05c0-1.26-.43-2.22-1.3-2.87-.86-.65-2.01-.97-3.44-.97h-4.47v7.78h4.37zm-6.36-9.62h6.59c.99 0 1.9.13 2.71.39s1.51.63 2.09 1.11a4.77 4.77 0 0 1 1.33 1.75c.31.69.47 1.47.47 2.34v.05c0 .96-.19 1.79-.56 2.5a5.11 5.11 0 0 1-1.49 1.8c-.63.49-1.37.86-2.21 1.1-.83.24-1.72.36-2.66.36h-4.28v6.22h-1.99V21.69zm28.24 11.18l-4-8.99-4.03 8.99h8.03zm-4.91-11.3h1.86l8.03 17.74h-2.14l-2.06-4.66h-9.59l-2.09 4.66h-2.04l8.03-17.74zm20.78 9.11c.66 0 1.26-.09 1.81-.25.56-.17 1.04-.41 1.44-.72a3.32 3.32 0 0 0 .95-1.13c.23-.45.34-.96.34-1.53V27c0-1.09-.39-1.94-1.19-2.55-.79-.61-1.9-.92-3.33-.92h-5.45v7.15h5.43zm-7.41-8.99h7.57c1.09 0 2.06.16 2.91.47.84.31 1.54.74 2.1 1.29.43.44.77.95 1.01 1.54.23.59.35 1.23.35 1.94v.05c0 .74-.12 1.39-.35 1.97-.24.58-.57 1.09-1 1.51-.43.43-.93.78-1.52 1.06s-1.23.47-1.91.59l5.41 7.2h-2.44l-5.11-6.85h-.05-4.99v6.85h-1.98V21.69zm22.85 1.84h-5.92v-1.84h13.82v1.84h-5.91v15.78h-1.99V23.53zm23.08 9.34l-4.01-8.99-4.02 8.99h8.03zm-4.91-11.3h1.86l8.03 17.74h-2.14l-2.06-4.66h-9.59l-2.09 4.66h-2.04l8.03-17.74zm13.36.12h2.02l6.41 9.62 6.42-9.62h2.02v17.62h-1.99V25.04l-6.42 9.44h-.1l-6.42-9.41v14.24h-1.94V21.69zm21.85 0h12.73v1.79h-10.74v6.07h9.61v1.78h-9.61v6.19h10.87v1.79h-12.86V21.69zm16.86 0h1.86l11.1 14.12V21.69h1.94v17.62h-1.59l-11.37-14.45v14.45h-1.94V21.69zm24.54 1.84h-5.92v-1.84h13.82v1.84h-5.91v15.78h-1.99V23.53zm19.88 14.25c1.01 0 1.94-.19 2.78-.57.85-.38 1.58-.89 2.18-1.55.6-.65 1.08-1.42 1.42-2.29.35-.87.52-1.81.52-2.82v-.05c0-1.01-.17-1.95-.52-2.83-.34-.88-.82-1.65-1.45-2.3-.62-.66-1.35-1.18-2.2-1.56-.85-.39-1.77-.58-2.78-.58-1 0-1.93.19-2.78.56-.85.38-1.57.9-2.18 1.55a7.36 7.36 0 0 0-1.42 2.29c-.34.87-.51 1.81-.51 2.82v.05c0 1.01.17 1.95.51 2.83s.83 1.65 1.45 2.31a7.09 7.09 0 0 0 2.2 1.56c.85.38 1.77.58 2.78.58zm-.05 1.83c-1.34 0-2.56-.24-3.66-.73a8.62 8.62 0 0 1-2.83-1.97c-.79-.83-1.4-1.8-1.83-2.9a9.61 9.61 0 0 1-.64-3.46v-.05c0-1.21.22-2.36.66-3.47.43-1.11 1.04-2.08 1.83-2.91s1.74-1.49 2.85-1.99c1.1-.49 2.33-.74 3.67-.74s2.57.24 3.66.73c1.1.49 2.05 1.15 2.83 1.98.79.83 1.4 1.79 1.83 2.89s.64 2.25.64 3.46c.02.02.02.04 0 .05 0 1.21-.22 2.37-.65 3.47-.44 1.11-1.05 2.08-1.84 2.91s-1.74 1.5-2.84 1.99c-1.11.5-2.34.74-3.68.74zm26.88-2.14c1.11 0 2.12-.17 3.02-.53.91-.35 1.68-.83 2.31-1.45a6.63 6.63 0 0 0 1.45-2.21 7.06 7.06 0 0 0 .52-2.73v-.05c0-.97-.17-1.88-.52-2.73a6.63 6.63 0 0 0-1.45-2.21c-.63-.63-1.4-1.13-2.31-1.49-.9-.36-1.91-.54-3.02-.54h-4.13v13.94h4.13zm-6.11-15.78h6.11c1.38 0 2.64.23 3.79.67s2.14 1.06 2.97 1.85a8.25 8.25 0 0 1 1.92 2.78c.46 1.07.68 2.22.68 3.46v.05c0 1.24-.22 2.4-.68 3.47-.45 1.08-1.09 2.01-1.92 2.8a9.02 9.02 0 0 1-2.97 1.86c-1.15.45-2.41.68-3.79.68h-6.11V21.69zm19.68 0h12.73v1.79h-10.74v6.07h9.61v1.78h-9.61v6.19h10.87v1.79h-12.86V21.69zm32.64 16.09a6.71 6.71 0 0 0 2.22-.36 6.07 6.07 0 0 0 1.83-.98l-3.27-2.79 1.34-1.49 3.24 2.95c.49-.62.87-1.32 1.13-2.09.27-.77.41-1.6.41-2.47v-.05c0-1.01-.17-1.95-.52-2.83-.34-.88-.82-1.65-1.45-2.3-.62-.66-1.35-1.18-2.2-1.56-.85-.39-1.77-.58-2.78-.58s-1.93.19-2.78.56c-.85.38-1.57.9-2.18 1.55a7.36 7.36 0 0 0-1.42 2.29c-.34.87-.52 1.81-.52 2.82v.05c0 1.01.18 1.95.52 2.83s.83 1.65 1.45 2.31a7.09 7.09 0 0 0 2.2 1.56c.85.38 1.77.58 2.78.58zm5.51-.05c-.75.58-1.59 1.04-2.51 1.38-.93.34-1.94.5-3.05.5-1.34 0-2.56-.24-3.66-.73a8.62 8.62 0 0 1-2.83-1.97c-.79-.83-1.4-1.8-1.83-2.9s-.64-2.25-.64-3.46v-.05c0-1.21.22-2.36.66-3.47.43-1.11 1.04-2.08 1.83-2.91s1.74-1.49 2.85-1.99c1.1-.49 2.33-.74 3.67-.74s2.56.24 3.66.73 2.05 1.15 2.83 1.98c.79.83 1.4 1.79 1.83 2.89s.64 2.25.64 3.46c.02.02.02.04 0 .05a9.5 9.5 0 0 1-.54 3.19c-.36 1.01-.89 1.92-1.57 2.73l2.34 1.93-1.36 1.49-2.32-2.11zm14.7 1.86c-1.09 0-2.08-.17-2.98-.49-.9-.33-1.67-.82-2.32-1.46-.64-.65-1.14-1.45-1.49-2.41-.36-.95-.53-2.05-.53-3.29V21.69h1.99v10.12c0 1.91.47 3.38 1.42 4.4.95 1.03 2.27 1.54 3.96 1.54 1.63 0 2.92-.49 3.88-1.46.95-.97 1.43-2.42 1.43-4.35V21.69h1.99v10.1c0 1.29-.18 2.42-.53 3.39-.35.98-.85 1.79-1.5 2.44-.64.66-1.41 1.15-2.31 1.48-.9.32-1.9.49-3.01.49zm14.83-23.11l2.01.93-2.84 2.7h-1.56l2.39-3.63zm-2.6 5.21h1.99v17.62h-1.99V21.69zm7.15 0h2.01l6.42 9.62 6.42-9.62h2.01v17.62h-1.98V25.04l-6.42 9.44h-.1l-6.42-9.41v14.24h-1.94V21.69zm22.02 0h1.99v17.62h-1.99V21.69zm15.2 17.92c-1.27 0-2.44-.23-3.52-.7-1.07-.47-2-1.11-2.79-1.93-.79-.81-1.41-1.77-1.85-2.88-.45-1.11-.67-2.29-.67-3.55v-.05c0-1.24.22-2.41.67-3.52.44-1.11 1.06-2.08 1.85-2.91s1.73-1.48 2.82-1.96 2.28-.72 3.57-.72c.81 0 1.53.07 2.18.2.64.14 1.24.33 1.8.57.55.24 1.06.54 1.53.88a12.08 12.08 0 0 1 1.36 1.14l-1.36 1.46c-.75-.7-1.56-1.28-2.43-1.73-.86-.46-1.9-.68-3.1-.68-.98 0-1.88.18-2.71.55s-1.55.88-2.16 1.54c-.62.65-1.1 1.42-1.44 2.3s-.52 1.82-.52 2.83v.05c0 1.02.18 1.98.52 2.86s.82 1.65 1.44 2.3a6.69 6.69 0 0 0 2.16 1.55 6.42 6.42 0 0 0 2.71.57c1.2 0 2.24-.23 3.12-.67.87-.45 1.73-1.07 2.56-1.88l1.31 1.29c-.45.47-.92.89-1.42 1.27-.49.38-1.03.7-1.6.97-.57.26-1.18.48-1.84.63-.65.15-1.38.22-2.19.22zm21.95-6.74l-4-8.99-4.03 8.99h8.03zm-4.91-11.3h1.87l8.03 17.74h-2.14l-2.07-4.66h-9.59l-2.09 4.66h-2.03l8.02-17.74z" fill="#a7c4d2"/><path d="M22.77 41.92c-2.03 0-3.95-.31-5.77-.95-1.82-.63-3.43-1.58-4.83-2.85l3.49-4.22c2.26 1.83 4.71 2.74 7.33 2.74.84 0 1.48-.14 1.93-.41.44-.27.66-.66.66-1.16v-.06a1.31 1.31 0 0 0-.16-.63c-.11-.19-.31-.37-.6-.54s-.68-.34-1.16-.5c-.49-.17-1.12-.34-1.89-.51l-3.36-.92c-1.04-.34-1.93-.78-2.7-1.31-.76-.53-1.37-1.2-1.81-1.99s-.66-1.77-.66-2.94v-.07c0-1.06.2-2.04.6-2.93s.98-1.66 1.74-2.31c.77-.65 1.69-1.16 2.76-1.52 1.08-.35 2.3-.53 3.65-.53 1.94 0 3.67.25 5.19.77 1.52.51 2.89 1.27 4.12 2.28l-3.14 4.48c-1.03-.74-2.09-1.3-3.18-1.68s-2.14-.57-3.15-.57c-.75 0-1.32.14-1.69.43-.38.28-.57.63-.57 1.04v.06c0 .26.06.49.18.68.12.2.32.38.61.54.29.17.69.33 1.2.49.5.17 1.14.33 1.92.51 1.29.28 2.46.61 3.5.99 1.05.38 1.94.84 2.67 1.38a5.73 5.73 0 0 1 1.68 1.97c.39.77.58 1.69.58 2.75v.07c0 1.17-.22 2.22-.66 3.12-.44.92-1.06 1.7-1.86 2.34-.8.63-1.75 1.12-2.87 1.46s-2.37.5-3.75.5zM34.95 18.7H53.1v5.38H41.12v3.46h10.85v4.99H41.12v3.62h12.14v5.38H34.95V18.7zm31.94 10.96c1.08 0 1.91-.25 2.49-.73.58-.49.87-1.15.87-1.98v-.06c0-.92-.3-1.6-.9-2.04-.61-.45-1.44-.67-2.49-.67h-4.1v5.48h4.13zM56.49 18.7h10.69c1.75 0 3.22.22 4.43.65 1.2.44 2.18 1.04 2.94 1.83 1.33 1.3 2 3.08 2 5.32v.06c0 1.76-.42 3.22-1.26 4.37s-1.97 2.04-3.39 2.64l5.39 7.96h-7.23l-4.56-6.91h-.06-2.68v6.91h-6.27V18.7zm21.42 0h7.01l5.13 14.45 5.14-14.45h6.88l-9.18 23h-5.81l-9.17-23zm26.48 0h6.3v22.83h-6.3V18.7zm15.86 26.39l2.52-3.46a11.55 11.55 0 0 1-3.5-1.52 10.7 10.7 0 0 1-2.76-2.52c-.78-1-1.38-2.13-1.81-3.38s-.65-2.59-.65-4.03v-.06c0-1.66.3-3.21.9-4.65.61-1.45 1.44-2.71 2.49-3.79 1.06-1.07 2.31-1.92 3.76-2.52 1.46-.61 3.05-.92 4.77-.92 1.16 0 2.22.12 3.16.34.95.23 1.82.56 2.6.98a10.61 10.61 0 0 1 2.14 1.52c.63.59 1.2 1.23 1.69 1.92l-4.71 3.69c-.65-.83-1.36-1.48-2.14-1.96-.77-.47-1.71-.71-2.81-.71-.79 0-1.52.15-2.18.47a5.08 5.08 0 0 0-1.69 1.29c-.48.54-.85 1.18-1.12 1.92a7.03 7.03 0 0 0-.4 2.35v.07c0 .84.14 1.64.4 2.39.27.75.64 1.4 1.12 1.94a5.08 5.08 0 0 0 1.69 1.29 4.94 4.94 0 0 0 2.18.48 6.09 6.09 0 0 0 1.6-.2c.49-.13.93-.32 1.33-.57a7.17 7.17 0 0 0 1.13-.88c.35-.34.7-.71 1.05-1.13l4.71 3.4c-.49.67-1.02 1.3-1.6 1.89a9.5 9.5 0 0 1-1.92 1.53c-.71.44-1.5.8-2.37 1.1-.87.29-1.84.48-2.89.56l-1.81 5.26-4.88-2.09zm29.57-8.81c.86 0 1.66-.16 2.37-.49s1.32-.76 1.81-1.32c.5-.55.89-1.2 1.17-1.94a6.57 6.57 0 0 0 .42-2.35v-.06a6.57 6.57 0 0 0-.42-2.35c-.28-.74-.69-1.39-1.2-1.96-.52-.57-1.13-1.02-1.85-1.35-.71-.34-1.5-.51-2.36-.51s-1.65.16-2.35.49-1.31.77-1.81 1.32a5.69 5.69 0 0 0-1.17 1.94 6.79 6.79 0 0 0-.41 2.35v.07c0 .82.15 1.6.43 2.34s.67 1.4 1.18 1.96a5.65 5.65 0 0 0 1.83 1.36c.71.33 1.5.5 2.36.5zm-.05 5.71c-1.74 0-3.35-.31-4.84-.93s-2.77-1.46-3.84-2.53c-1.08-1.06-1.93-2.31-2.54-3.75-.61-1.43-.92-2.97-.92-4.6v-.06a11.76 11.76 0 0 1 .92-4.62 11.37 11.37 0 0 1 2.57-3.78 12.18 12.18 0 0 1 3.87-2.55c1.49-.62 3.11-.93 4.85-.93s3.36.31 4.84.93c1.49.62 2.77 1.46 3.85 2.53 1.07 1.07 1.92 2.32 2.53 3.75.62 1.44.92 2.97.92 4.6v.07c0 1.63-.3 3.17-.92 4.61a11.64 11.64 0 0 1-2.56 3.79c-1.1 1.07-2.39 1.92-3.88 2.54s-3.1.93-4.85.93zm24.36-.07c-2.03 0-3.95-.31-5.77-.95-1.82-.63-3.43-1.58-4.83-2.85l3.49-4.22c2.26 1.83 4.71 2.74 7.34 2.74.84 0 1.48-.14 1.92-.41s.66-.66.66-1.16v-.06c0-.23-.05-.45-.16-.63-.11-.19-.31-.37-.6-.54s-.68-.34-1.16-.5c-.49-.17-1.12-.34-1.89-.51l-3.36-.92c-1.04-.34-1.93-.78-2.7-1.31-.76-.53-1.37-1.2-1.81-1.99s-.66-1.77-.66-2.94v-.07c0-1.06.2-2.04.6-2.93s.98-1.66 1.74-2.31c.77-.65 1.69-1.16 2.76-1.52 1.08-.35 2.3-.53 3.65-.53 1.94 0 3.67.25 5.19.77 1.52.51 2.89 1.27 4.12 2.28l-3.14 4.48c-1.03-.74-2.09-1.3-3.18-1.68s-2.14-.57-3.15-.57c-.75 0-1.32.14-1.69.43-.38.28-.57.63-.57 1.04v.06c0 .26.06.49.18.68.12.2.32.38.61.54.29.17.69.33 1.2.49.5.17 1.15.33 1.92.51 1.29.28 2.46.61 3.5.99 1.05.38 1.94.84 2.67 1.38a5.73 5.73 0 0 1 1.68 1.97c.39.77.58 1.69.58 2.75v.07c0 1.17-.22 2.22-.66 3.12-.44.92-1.06 1.7-1.86 2.34-.8.63-1.75 1.12-2.87 1.46s-2.37.5-3.75.5z" fill="#fff"/></svg>