<?xml version="1.0" encoding="UTF-8"?>
<!DOCTYPE svg PUBLIC "-//W3C//DTD SVG 1.1//EN" "http://www.w3.org/Graphics/SVG/1.1/DTD/svg11.dtd">
<svg xmlns="http://www.w3.org/2000/svg" xml:space="preserve" width="430px" height="70px" version="1.1" style="shape-rendering:geometricPrecision; text-rendering:geometricPrecision; image-rendering:optimizeQuality; fill-rule:evenodd; clip-rule:evenodd"
viewBox="0 0 430 70"
 xmlns:xlink="http://www.w3.org/1999/xlink">
 <defs>
  <style type="text/css">
   <![CDATA[
    .fil0 {fill:none}
    .fil1 {fill:#A7C4D2;fill-rule:nonzero}
    .fil2 {fill:white;fill-rule:nonzero}
   ]]>
  </style>
 </defs>
 <g>
  <polygon class="fil0" points="0,0 430,0 430,70 0,70 "/>
  <path class="fil1" d="M27.35 62.22c1.1,0 2.11,-0.17 3.02,-0.52 0.9,-0.36 1.67,-0.84 2.3,-1.46 0.63,-0.62 1.11,-1.36 1.46,-2.21 0.34,-0.84 0.51,-1.75 0.51,-2.73l0 -0.05c0,-0.97 -0.17,-1.88 -0.51,-2.73 -0.35,-0.85 -0.83,-1.58 -1.46,-2.21 -0.63,-0.63 -1.4,-1.13 -2.3,-1.49 -0.91,-0.36 -1.92,-0.54 -3.02,-0.54l-4.13 0 0 13.94 4.13 0zm-6.12 -15.78l6.12 0c1.37,0 2.63,0.23 3.78,0.67 1.15,0.45 2.14,1.06 2.97,1.85 0.83,0.79 1.48,1.72 1.93,2.78 0.45,1.07 0.68,2.22 0.68,3.46l0 0.05c0,1.24 -0.23,2.4 -0.68,3.48 -0.45,1.07 -1.1,2 -1.93,2.79 -0.83,0.79 -1.82,1.41 -2.97,1.86 -1.15,0.46 -2.41,0.68 -3.78,0.68l-6.12 0 0 -17.62zm19.68 0l12.74 0 0 1.79 -10.75 0 0 6.07 9.61 0 0 1.78 -9.61 0 0 6.19 10.87 0 0 1.79 -12.86 0 0 -17.62zm23.22 9.62c0.72,0 1.38,-0.09 1.98,-0.28 0.6,-0.18 1.11,-0.45 1.54,-0.79 0.43,-0.35 0.76,-0.76 0.98,-1.23 0.23,-0.47 0.34,-1 0.34,-1.59l0 -0.05c0,-1.26 -0.43,-2.22 -1.3,-2.87 -0.86,-0.65 -2.01,-0.97 -3.44,-0.97l-4.47 0 0 7.78 4.37 0zm-6.36 -9.62l6.6 0c0.99,0 1.89,0.13 2.7,0.39 0.82,0.26 1.51,0.63 2.09,1.11 0.58,0.48 1.03,1.06 1.34,1.75 0.31,0.69 0.46,1.47 0.46,2.34l0 0.05c0,0.96 -0.18,1.79 -0.55,2.51 -0.37,0.71 -0.87,1.31 -1.5,1.8 -0.63,0.48 -1.36,0.85 -2.2,1.09 -0.84,0.24 -1.73,0.37 -2.67,0.37l-4.28 0 0 6.21 -1.99 0 0 -17.62zm28.24 11.18l-4 -8.99 -4.03 8.99 8.03 0zm-4.9 -11.3l1.86 0 8.03 17.74 -2.14 0 -2.07 -4.65 -9.59 0 -2.09 4.65 -2.03 0 8.03 -17.74zm20.77 9.11c0.66,0 1.26,-0.08 1.82,-0.25 0.55,-0.17 1.03,-0.41 1.44,-0.72 0.4,-0.31 0.72,-0.69 0.94,-1.13 0.23,-0.45 0.34,-0.95 0.34,-1.52l0 -0.06c0,-1.09 -0.39,-1.94 -1.18,-2.55 -0.79,-0.61 -1.9,-0.92 -3.33,-0.92l-5.45 0 0 7.15 5.42 0zm-7.41 -8.99l7.58 0c1.09,0 2.05,0.16 2.9,0.47 0.85,0.31 1.55,0.74 2.1,1.3 0.44,0.43 0.78,0.94 1.01,1.53 0.23,0.59 0.35,1.23 0.35,1.94l0 0.05c0,0.74 -0.12,1.4 -0.35,1.97 -0.23,0.58 -0.57,1.09 -0.99,1.52 -0.43,0.42 -0.94,0.77 -1.53,1.05 -0.58,0.28 -1.22,0.48 -1.91,0.59l5.41 7.2 -2.44 0 -5.11 -6.84 -0.05 0 -4.98 0 0 6.84 -1.99 0 0 -17.62zm22.85 1.84l-5.91 0 0 -1.84 13.81 0 0 1.84 -5.91 0 0 15.78 -1.99 0 0 -15.78zm23.08 9.34l-4 -8.99 -4.03 8.99 8.03 0zm-4.91 -11.3l1.86 0 8.03 17.74 -2.14 0 -2.06 -4.65 -9.59 0 -2.09 4.65 -2.04 0 8.03 -17.74zm13.37 0.12l2.01 0 6.42 9.62 6.42 -9.62 2.01 0 0 17.62 -1.99 0 0 -14.27 -6.42 9.44 -0.1 0 -6.42 -9.41 0 14.24 -1.93 0 0 -17.62zm21.84 0l12.74 0 0 1.79 -10.75 0 0 6.07 9.61 0 0 1.78 -9.61 0 0 6.19 10.87 0 0 1.79 -12.86 0 0 -17.62zm16.87 0l1.86 0 11.1 14.12 0 -14.12 1.93 0 0 17.62 -1.58 0 -11.38 -14.44 0 14.44 -1.93 0 0 -17.62zm24.53 1.84l-5.91 0 0 -1.84 13.82 0 0 1.84 -5.92 0 0 15.78 -1.99 0 0 -15.78zm19.89 14.25c1,0 1.93,-0.19 2.78,-0.57 0.84,-0.38 1.57,-0.89 2.17,-1.55 0.61,-0.65 1.08,-1.42 1.43,-2.29 0.34,-0.87 0.51,-1.81 0.51,-2.82l0 -0.05c0,-1 -0.17,-1.95 -0.51,-2.83 -0.35,-0.88 -0.83,-1.65 -1.45,-2.3 -0.62,-0.66 -1.36,-1.18 -2.2,-1.56 -0.85,-0.39 -1.78,-0.58 -2.78,-0.58 -1.01,0 -1.94,0.19 -2.79,0.57 -0.84,0.37 -1.57,0.89 -2.17,1.54 -0.61,0.66 -1.08,1.42 -1.42,2.29 -0.35,0.88 -0.52,1.82 -0.52,2.82l0 0.05c0,1.01 0.17,1.95 0.52,2.83 0.34,0.89 0.82,1.65 1.44,2.31 0.62,0.65 1.36,1.17 2.21,1.56 0.84,0.38 1.77,0.58 2.78,0.58zm-0.05 1.83c-1.35,0 -2.57,-0.24 -3.67,-0.73 -1.1,-0.48 -2.04,-1.14 -2.83,-1.97 -0.79,-0.83 -1.39,-1.8 -1.82,-2.9 -0.43,-1.09 -0.64,-2.25 -0.64,-3.46l0 -0.05c0,-1.21 0.21,-2.36 0.65,-3.47 0.44,-1.11 1.05,-2.08 1.84,-2.91 0.79,-0.83 1.73,-1.49 2.84,-1.98 1.11,-0.5 2.33,-0.75 3.68,-0.75 1.34,0 2.56,0.25 3.66,0.73 1.1,0.49 2.04,1.15 2.83,1.98 0.79,0.83 1.4,1.79 1.82,2.89 0.43,1.1 0.65,2.25 0.65,3.46 0.01,0.02 0.01,0.04 0,0.05 0,1.21 -0.22,2.37 -0.66,3.48 -0.43,1.1 -1.05,2.07 -1.84,2.9 -0.78,0.83 -1.73,1.5 -2.84,1.99 -1.11,0.5 -2.33,0.74 -3.67,0.74zm26.88 -2.14c1.1,0 2.11,-0.17 3.02,-0.52 0.9,-0.36 1.67,-0.84 2.3,-1.46 0.63,-0.62 1.11,-1.36 1.46,-2.21 0.34,-0.84 0.51,-1.75 0.51,-2.73l0 -0.05c0,-0.97 -0.17,-1.88 -0.51,-2.73 -0.35,-0.85 -0.83,-1.58 -1.46,-2.21 -0.63,-0.63 -1.4,-1.13 -2.3,-1.49 -0.91,-0.36 -1.92,-0.54 -3.02,-0.54l-4.13 0 0 13.94 4.13 0zm-6.12 -15.78l6.12 0c1.37,0 2.64,0.23 3.78,0.67 1.15,0.45 2.14,1.06 2.97,1.85 0.83,0.79 1.48,1.72 1.93,2.78 0.45,1.07 0.68,2.22 0.68,3.46l0 0.05c0,1.24 -0.23,2.4 -0.68,3.48 -0.45,1.07 -1.1,2 -1.93,2.79 -0.83,0.79 -1.82,1.41 -2.97,1.86 -1.14,0.46 -2.41,0.68 -3.78,0.68l-6.12 0 0 -17.62zm19.68 0l12.74 0 0 1.79 -10.75 0 0 6.07 9.61 0 0 1.78 -9.61 0 0 6.19 10.87 0 0 1.79 -12.86 0 0 -17.62zm32.65 16.09c0.78,0 1.52,-0.12 2.21,-0.36 0.69,-0.23 1.3,-0.56 1.84,-0.98l-3.27 -2.79 1.33 -1.49 3.25 2.95c0.48,-0.62 0.86,-1.32 1.13,-2.09 0.27,-0.77 0.4,-1.59 0.4,-2.47l0 -0.05c0,-1 -0.17,-1.95 -0.51,-2.83 -0.35,-0.88 -0.83,-1.65 -1.45,-2.3 -0.62,-0.66 -1.36,-1.18 -2.2,-1.56 -0.85,-0.39 -1.78,-0.58 -2.78,-0.58 -1.01,0 -1.94,0.19 -2.79,0.57 -0.84,0.37 -1.57,0.89 -2.17,1.54 -0.61,0.66 -1.08,1.42 -1.42,2.29 -0.35,0.88 -0.52,1.82 -0.52,2.82l0 0.05c0,1.01 0.17,1.95 0.52,2.83 0.34,0.89 0.82,1.65 1.44,2.31 0.62,0.65 1.36,1.17 2.2,1.56 0.85,0.38 1.78,0.58 2.79,0.58zm5.51 -0.05c-0.76,0.58 -1.6,1.04 -2.52,1.38 -0.92,0.34 -1.94,0.5 -3.04,0.5 -1.35,0 -2.57,-0.24 -3.67,-0.73 -1.1,-0.48 -2.04,-1.14 -2.83,-1.97 -0.79,-0.83 -1.39,-1.8 -1.82,-2.9 -0.43,-1.09 -0.64,-2.25 -0.64,-3.46l0 -0.05c0,-1.21 0.21,-2.36 0.65,-3.47 0.44,-1.11 1.05,-2.08 1.84,-2.91 0.79,-0.83 1.73,-1.49 2.84,-1.98 1.11,-0.5 2.33,-0.75 3.68,-0.75 1.34,0 2.56,0.25 3.66,0.73 1.1,0.49 2.04,1.15 2.83,1.98 0.79,0.83 1.4,1.79 1.82,2.89 0.43,1.1 0.65,2.25 0.65,3.46 0.01,0.02 0.01,0.04 0,0.05 0,1.11 -0.18,2.17 -0.55,3.19 -0.36,1.01 -0.88,1.92 -1.57,2.73l2.34 1.94 -1.36 1.48 -2.31 -2.11zm14.7 1.86c-1.09,0 -2.09,-0.16 -2.99,-0.49 -0.89,-0.33 -1.67,-0.82 -2.31,-1.46 -0.65,-0.65 -1.15,-1.45 -1.5,-2.41 -0.35,-0.95 -0.53,-2.05 -0.53,-3.29l0 -10.25 1.99 0 0 10.12c0,1.91 0.47,3.38 1.42,4.41 0.95,1.02 2.27,1.53 3.97,1.53 1.62,0 2.92,-0.48 3.87,-1.46 0.96,-0.97 1.44,-2.42 1.44,-4.35l0 -10.25 1.98 0 0 10.1c0,1.29 -0.17,2.42 -0.52,3.39 -0.36,0.98 -0.85,1.79 -1.5,2.45 -0.65,0.65 -1.42,1.14 -2.32,1.47 -0.89,0.33 -1.9,0.49 -3,0.49zm14.82 -23.11l2.01 0.94 -2.84 2.69 -1.56 0 2.39 -3.63zm-2.59 5.21l1.99 0 0 17.62 -1.99 0 0 -17.62zm7.15 0l2.01 0 6.42 9.62 6.42 -9.62 2.01 0 0 17.62 -1.99 0 0 -14.27 -6.42 9.44 -0.1 0 -6.42 -9.41 0 14.24 -1.93 0 0 -17.62zm22.02 0l1.99 0 0 17.62 -1.99 0 0 -17.62zm15.2 17.92c-1.28,0 -2.45,-0.23 -3.52,-0.7 -1.08,-0.47 -2.01,-1.11 -2.8,-1.93 -0.79,-0.81 -1.4,-1.77 -1.85,-2.88 -0.44,-1.11 -0.66,-2.29 -0.66,-3.55l0 -0.05c0,-1.24 0.22,-2.41 0.66,-3.52 0.45,-1.11 1.06,-2.08 1.85,-2.91 0.79,-0.83 1.73,-1.48 2.82,-1.96 1.09,-0.48 2.28,-0.72 3.57,-0.72 0.81,0 1.54,0.07 2.18,0.2 0.65,0.14 1.25,0.33 1.8,0.57 0.56,0.24 1.07,0.54 1.54,0.88 0.47,0.34 0.92,0.73 1.36,1.15l-1.36 1.46c-0.76,-0.71 -1.57,-1.29 -2.43,-1.74 -0.87,-0.45 -1.9,-0.68 -3.11,-0.68 -0.97,0 -1.87,0.18 -2.71,0.55 -0.83,0.37 -1.55,0.88 -2.16,1.54 -0.61,0.65 -1.09,1.42 -1.43,2.3 -0.35,0.88 -0.52,1.83 -0.52,2.83l0 0.05c0,1.03 0.17,1.98 0.52,2.86 0.34,0.88 0.82,1.65 1.43,2.3 0.61,0.66 1.33,1.17 2.16,1.55 0.84,0.38 1.74,0.57 2.71,0.57 1.21,0 2.25,-0.23 3.12,-0.67 0.87,-0.44 1.73,-1.07 2.57,-1.88l1.31 1.29c-0.46,0.47 -0.93,0.89 -1.43,1.27 -0.49,0.38 -1.02,0.7 -1.59,0.97 -0.57,0.27 -1.19,0.48 -1.84,0.63 -0.66,0.15 -1.39,0.22 -2.19,0.22zm21.95 -6.74l-4.01 -8.99 -4.02 8.99 8.03 0zm-4.91 -11.3l1.86 0 8.03 17.74 -2.14 0 -2.06 -4.65 -9.59 0 -2.09 4.65 -2.04 0 8.03 -17.74z"/>
  <path class="fil2" d="M140.05 29.39c-2.03,0 -3.95,-0.31 -5.77,-0.95 -1.82,-0.63 -3.43,-1.59 -4.83,-2.85l3.49 -4.22c2.26,1.83 4.7,2.74 7.33,2.74 0.84,0 1.48,-0.14 1.92,-0.41 0.45,-0.27 0.67,-0.66 0.67,-1.16l0 -0.06c0,-0.24 -0.06,-0.45 -0.16,-0.63 -0.11,-0.19 -0.31,-0.37 -0.6,-0.54 -0.29,-0.18 -0.68,-0.34 -1.17,-0.51 -0.48,-0.16 -1.11,-0.33 -1.89,-0.5 -1.2,-0.29 -2.32,-0.59 -3.35,-0.93 -1.04,-0.33 -1.94,-0.77 -2.7,-1.3 -0.77,-0.54 -1.37,-1.2 -1.81,-1.99 -0.44,-0.79 -0.66,-1.77 -0.66,-2.94l0 -0.07c0,-1.06 0.2,-2.04 0.6,-2.93 0.39,-0.89 0.97,-1.66 1.74,-2.31 0.76,-0.65 1.68,-1.16 2.76,-1.52 1.08,-0.35 2.29,-0.53 3.65,-0.53 1.94,0 3.67,0.25 5.18,0.77 1.52,0.51 2.9,1.27 4.12,2.28l-3.13 4.48c-1.03,-0.74 -2.09,-1.3 -3.18,-1.68 -1.09,-0.38 -2.14,-0.57 -3.15,-0.57 -0.75,0 -1.32,0.14 -1.7,0.42 -0.37,0.29 -0.56,0.63 -0.56,1.05l0 0.06c0,0.26 0.06,0.49 0.18,0.68 0.12,0.2 0.32,0.38 0.61,0.54 0.29,0.16 0.69,0.33 1.2,0.49 0.5,0.16 1.14,0.33 1.92,0.51 1.29,0.28 2.46,0.61 3.5,0.99 1.05,0.38 1.93,0.84 2.67,1.38 0.73,0.55 1.29,1.2 1.68,1.97 0.38,0.77 0.58,1.69 0.58,2.75l0 0.07c0,1.17 -0.22,2.22 -0.66,3.12 -0.45,0.92 -1.07,1.69 -1.86,2.34 -0.8,0.63 -1.76,1.12 -2.88,1.46 -1.12,0.34 -2.37,0.5 -3.74,0.5zm12.17 -23.22l18.16 0 0 5.38 -11.99 0 0 3.46 10.86 0 0 4.99 -10.86 0 0 3.62 12.15 0 0 5.38 -18.32 0 0 -22.83zm31.95 10.96c1.08,0 1.9,-0.25 2.49,-0.74 0.58,-0.49 0.87,-1.14 0.87,-1.97l0 -0.06c0,-0.92 -0.3,-1.6 -0.91,-2.04 -0.6,-0.45 -1.43,-0.67 -2.48,-0.67l-4.11 0 0 5.48 4.14 0zm-10.4 -10.96l10.69 0c1.74,0 3.22,0.22 4.42,0.65 1.21,0.43 2.19,1.04 2.94,1.83 1.34,1.3 2.01,3.07 2.01,5.31l0 0.07c0,1.76 -0.42,3.22 -1.26,4.37 -0.84,1.15 -1.97,2.03 -3.39,2.64l5.39 7.96 -7.24 0 -4.55 -6.91 -0.06 0 -2.69 0 0 6.91 -6.26 0 0 -22.83zm21.41 0l7.01 0 5.14 14.45 5.13 -14.45 6.88 0 -9.17 23 -5.81 0 -9.18 -23zm26.49 0l6.3 0 0 22.83 -6.3 0 0 -22.83zm15.86 26.39l2.52 -3.46c-1.27,-0.33 -2.44,-0.83 -3.51,-1.52 -1.06,-0.68 -1.98,-1.52 -2.76,-2.53 -0.77,-1 -1.38,-2.12 -1.81,-3.37 -0.43,-1.25 -0.64,-2.6 -0.64,-4.03l0 -0.07c0,-1.65 0.3,-3.2 0.9,-4.64 0.6,-1.45 1.43,-2.71 2.49,-3.79 1.05,-1.07 2.31,-1.92 3.76,-2.53 1.46,-0.6 3.04,-0.91 4.77,-0.91 1.16,0 2.22,0.11 3.16,0.34 0.95,0.23 1.82,0.56 2.6,0.98 0.79,0.43 1.5,0.93 2.13,1.52 0.64,0.59 1.21,1.23 1.7,1.92l-4.72 3.69c-0.64,-0.83 -1.35,-1.48 -2.13,-1.96 -0.77,-0.48 -1.71,-0.72 -2.81,-0.72 -0.79,0 -1.52,0.16 -2.18,0.48 -0.65,0.31 -1.22,0.74 -1.69,1.29 -0.48,0.54 -0.85,1.18 -1.12,1.92 -0.27,0.74 -0.4,1.52 -0.4,2.35l0 0.06c0,0.85 0.13,1.65 0.4,2.4 0.27,0.75 0.64,1.4 1.12,1.94 0.47,0.55 1.04,0.98 1.69,1.29 0.66,0.32 1.39,0.47 2.18,0.47 0.58,0 1.12,-0.06 1.6,-0.19 0.49,-0.13 0.93,-0.32 1.33,-0.57 0.39,-0.25 0.77,-0.55 1.13,-0.88 0.35,-0.34 0.7,-0.72 1.05,-1.13l4.71 3.39c-0.49,0.68 -1.03,1.31 -1.6,1.9 -0.57,0.58 -1.21,1.1 -1.92,1.53 -0.71,0.43 -1.5,0.8 -2.37,1.09 -0.88,0.3 -1.84,0.49 -2.89,0.57l-1.81 5.26 -4.88 -2.09zm29.57 -8.81c0.86,0 1.65,-0.16 2.36,-0.49 0.72,-0.33 1.32,-0.77 1.82,-1.32 0.49,-0.55 0.89,-1.2 1.17,-1.94 0.28,-0.74 0.42,-1.52 0.42,-2.35l0 -0.07c0,-0.82 -0.14,-1.61 -0.42,-2.34 -0.28,-0.74 -0.69,-1.4 -1.2,-1.96 -0.52,-0.57 -1.13,-1.02 -1.85,-1.36 -0.71,-0.33 -1.5,-0.5 -2.36,-0.5 -0.87,0 -1.65,0.16 -2.35,0.49 -0.71,0.32 -1.31,0.76 -1.82,1.32 -0.5,0.55 -0.89,1.2 -1.16,1.94 -0.27,0.74 -0.41,1.52 -0.41,2.35l0 0.06c0,0.83 0.14,1.61 0.42,2.35 0.28,0.74 0.68,1.39 1.19,1.96 0.5,0.57 1.11,1.02 1.83,1.35 0.71,0.34 1.5,0.51 2.36,0.51zm-0.05 5.71c-1.74,0 -3.36,-0.31 -4.84,-0.93 -1.49,-0.62 -2.77,-1.46 -3.85,-2.53 -1.07,-1.06 -1.92,-2.32 -2.53,-3.75 -0.62,-1.44 -0.92,-2.97 -0.92,-4.6l0 -0.07c0,-1.63 0.3,-3.17 0.92,-4.61 0.61,-1.45 1.47,-2.71 2.57,-3.79 1.09,-1.07 2.39,-1.92 3.87,-2.54 1.49,-0.62 3.1,-0.93 4.85,-0.93 1.74,0 3.36,0.31 4.84,0.93 1.49,0.62 2.77,1.46 3.85,2.53 1.07,1.06 1.92,2.31 2.53,3.75 0.62,1.44 0.92,2.97 0.92,4.6l0 0.06c0,1.64 -0.3,3.17 -0.92,4.62 -0.61,1.45 -1.47,2.71 -2.57,3.78 -1.09,1.08 -2.39,1.93 -3.87,2.55 -1.49,0.62 -3.1,0.93 -4.85,0.93zm24.36 -0.07c-2.03,0 -3.95,-0.31 -5.77,-0.95 -1.82,-0.63 -3.43,-1.59 -4.83,-2.85l3.49 -4.22c2.26,1.83 4.71,2.74 7.33,2.74 0.84,0 1.48,-0.14 1.93,-0.41 0.44,-0.27 0.66,-0.66 0.66,-1.16l0 -0.06c0,-0.24 -0.06,-0.45 -0.16,-0.63 -0.11,-0.19 -0.31,-0.37 -0.6,-0.54 -0.29,-0.18 -0.68,-0.34 -1.16,-0.51 -0.49,-0.16 -1.12,-0.33 -1.89,-0.5 -1.21,-0.29 -2.33,-0.59 -3.36,-0.93 -1.04,-0.33 -1.94,-0.77 -2.7,-1.3 -0.76,-0.54 -1.37,-1.2 -1.81,-1.99 -0.44,-0.79 -0.66,-1.77 -0.66,-2.94l0 -0.07c0,-1.06 0.2,-2.04 0.6,-2.93 0.39,-0.89 0.98,-1.66 1.74,-2.31 0.77,-0.65 1.69,-1.16 2.76,-1.52 1.08,-0.35 2.29,-0.53 3.65,-0.53 1.94,0 3.67,0.25 5.19,0.77 1.51,0.51 2.89,1.27 4.11,2.28l-3.13 4.48c-1.03,-0.74 -2.09,-1.3 -3.18,-1.68 -1.09,-0.38 -2.14,-0.57 -3.15,-0.57 -0.75,0 -1.32,0.14 -1.7,0.42 -0.37,0.29 -0.56,0.63 -0.56,1.05l0 0.06c0,0.26 0.06,0.49 0.18,0.68 0.12,0.2 0.32,0.38 0.61,0.54 0.29,0.16 0.69,0.33 1.2,0.49 0.5,0.16 1.14,0.33 1.92,0.51 1.29,0.28 2.46,0.61 3.5,0.99 1.05,0.38 1.94,0.84 2.67,1.38 0.73,0.55 1.29,1.2 1.68,1.97 0.38,0.77 0.58,1.69 0.58,2.75l0 0.07c0,1.17 -0.22,2.22 -0.66,3.12 -0.45,0.92 -1.06,1.69 -1.86,2.34 -0.8,0.63 -1.76,1.12 -2.88,1.46 -1.12,0.34 -2.36,0.5 -3.74,0.5z"/>
 </g>
</svg>